<?xml version="1.0" encoding="utf-8" standalone="yes"?><svg xmlns="http://www.w3.org/2000/svg" xmlns:xlink="http://www.w3.org/1999/xlink" version="1.1" width="794" height="1122"><!--Generated by Aspose.Words for .NET 24.7.0--><defs><clipPath id="clip001"><path d="M-6.666667,0 L792.3681,0 L792.3681,17.71875 L-6.666667,17.71875 Z" clip-rule="evenodd" /></clipPath><clipPath id="clip002"><path d="M-6.666667,0 L792.3681,0 L792.3681,17.71875 L-6.666667,17.71875 Z" clip-rule="evenodd" /></clipPath><clipPath id="clip003"><path d="M-6.666667,0 L792.3681,0 L792.3681,17.71875 L-6.666667,17.71875 Z" clip-rule="evenodd" /></clipPath><clipPath id="clip004"><path d="M-6.666667,0 L792.3681,0 L792.3681,17.71875 L-6.666667,17.71875 Z" clip-rule="evenodd" /></clipPath><clipPath id="clip005"><path d="M-6.666667,0 L792.3681,0 L792.3681,17.71875 L-6.666667,17.71875 Z" clip-rule="evenodd" /></clipPath><clipPath id="clip006"><path d="M-6.666667,0 L792.3681,0 L792.3681,17.71875 L-6.666667,17.71875 Z" clip-rule="evenodd" /></clipPath><clipPath id="clip007"><path d="M-6.666667,0 L792.3681,0 L792.3681,17.71875 L-6.666667,17.71875 Z" clip-rule="evenodd" /></clipPath><clipPath id="clip008"><path d="M-6.666667,0 L792.3681,0 L792.3681,17.71875 L-6.666667,17.71875 Z" clip-rule="evenodd" /></clipPath><clipPath id="clip009"><path d="M-6.666667,0 L792.3681,0 L792.3681,17.71875 L-6.666667,17.71875 Z" clip-rule="evenodd" /></clipPath><clipPath id="clip010"><path d="M-6.666667,0 L792.3681,0 L792.3681,17.71875 L-6.666667,17.71875 Z" clip-rule="evenodd" /></clipPath><clipPath id="clip011"><path d="M-6.666667,0 L792.3681,0 L792.3681,17.71875 L-6.666667,17.71875 Z" clip-rule="evenodd" /></clipPath><clipPath id="clip012"><path d="M-6.666667,0 L792.3681,0 L792.3681,17.71875 L-6.666667,17.71875 Z" clip-rule="evenodd" /></clipPath><clipPath id="clip013"><path d="M-6.666667,0 L792.3681,0 L792.3681,17.71875 L-6.666667,17.71875 Z" clip-rule="evenodd" /></clipPath><clipPath id="clip014"><path d="M-6.666667,0 L792.3681,0 L792.3681,17.71875 L-6.666667,17.71875 Z" clip-rule="evenodd" /></clipPath><clipPath id="clip015"><path d="M-6.666667,0 L792.3681,0 L792.3681,17.71875 L-6.666667,17.71875 Z" clip-rule="evenodd" /></clipPath><clipPath id="clip016"><path d="M-6.666667,0 L792.3681,0 L792.3681,17.71875 L-6.666667,17.71875 Z" clip-rule="evenodd" /></clipPath><clipPath id="clip017"><path d="M-6.666667,0 L792.3681,0 L792.3681,17.71875 L-6.666667,17.71875 Z" clip-rule="evenodd" /></clipPath><clipPath id="clip018"><path d="M-6.666667,0 L792.3681,0 L792.3681,17.71875 L-6.666667,17.71875 Z" clip-rule="evenodd" /></clipPath><clipPath id="clip019"><path d="M-6.666667,0 L792.3681,0 L792.3681,17.71875 L-6.666667,17.71875 Z" clip-rule="evenodd" /></clipPath><clipPath id="clip020"><path d="M-6.666667,0 L792.3681,0 L792.3681,17.71875 L-6.666667,17.71875 Z" clip-rule="evenodd" /></clipPath><clipPath id="clip021"><path d="M-6.666667,0 L792.3681,0 L792.3681,17.71875 L-6.666667,17.71875 Z" clip-rule="evenodd" /></clipPath><clipPath id="clip022"><path d="M-6.666667,0 L792.3681,0 L792.3681,17.71875 L-6.666667,17.71875 Z" clip-rule="evenodd" /></clipPath><clipPath id="clip023"><path d="M-6.666667,0 L792.3681,0 L792.3681,17.71875 L-6.666667,17.71875 Z" clip-rule="evenodd" /></clipPath><clipPath id="clip024"><path d="M-6.666667,0 L792.3681,0 L792.3681,17.71875 L-6.666667,17.71875 Z" clip-rule="evenodd" /></clipPath><clipPath id="clip025"><path d="M-6.666667,0 L792.3681,0 L792.3681,17.71875 L-6.666667,17.71875 Z" clip-rule="evenodd" /></clipPath><clipPath id="clip026"><path d="M-6.666667,0 L792.3681,0 L792.3681,17.71875 L-6.666667,17.71875 Z" clip-rule="evenodd" /></clipPath></defs><clipPath id="page-clip-path-1"><rect x="0" y="0" width="793.67" height="1122.47" /></clipPath><g clip-path="url(#page-clip-path-1)" transform="translate(0.17,0)"><g><g><g /></g></g><g transform="translate(8,8.139999)"><path d="M0,0 L785.7014,0 L785.7014,17.71875 L0,17.71875 Z" fill="#ffffff" fill-rule="evenodd" /><path d="M0,0 L785.7014,0 L785.7014,17.71875 L0,17.71875 Z" stroke-width="0.1866667" stroke-linejoin="round" stroke-miterlimit="13.33333" stroke="#000000" fill="none" fill-rule="evenodd" /><g clip-path="url(#clip001)"><text><tspan x="0" y="14.93733" font-family="Times New Roman" font-weight="normal" font-style="normal" font-size="16" fill="#000000">{"v":"5.6.5","fr":24,"ip":0,"op":28,"w":50,"h":50,"nm":"checkmark-ok","ddd":0,"assets":[],"layers":</tspan><tspan x="645.68" y="14.93733" font-family="Calibri" font-weight="normal" font-style="normal" font-size="14.66667" fill="#000000"> </tspan></text></g></g><g transform="translate(8,26.14)"><path d="M0,0 L785.7014,0 L785.7014,17.71875 L0,17.71875 Z" fill="#ffffff" fill-rule="evenodd" /><path d="M0,0 L785.7014,0 L785.7014,17.71875 L0,17.71875 Z" stroke-width="0.1866667" stroke-linejoin="round" stroke-miterlimit="13.33333" stroke="#000000" fill="none" fill-rule="evenodd" /><g clip-path="url(#clip002)"><text><tspan x="0" y="14.93733" font-family="Times New Roman" font-weight="normal" font-style="normal" font-size="16" fill="#000000">[{"ddd":0,"ind":1,"ty":4,"nm":"Checkmark</tspan><tspan x="276.656" y="14.93733" font-family="Times New Roman" font-weight="normal" font-style="normal" font-size="16" fill="#000000"> </tspan><tspan x="280.656" y="14.93733" font-family="Times New Roman" font-weight="normal" font-style="normal" font-size="16" fill="#000000">2","sr":1,"ks":{"o":{"a":0,"k":100,"ix":11},"r":{"a":0,"k":0,"ix":10},"p":</tspan><tspan x="748.3747" y="14.93733" font-family="Calibri" font-weight="normal" font-style="normal" font-size="14.66667" fill="#000000"> </tspan></text></g></g><g transform="translate(8,44.14)"><path d="M0,0 L785.7014,0 L785.7014,17.71875 L0,17.71875 Z" fill="#ffffff" fill-rule="evenodd" /><path d="M0,0 L785.7014,0 L785.7014,17.71875 L0,17.71875 Z" stroke-width="0.1866667" stroke-linejoin="round" stroke-miterlimit="13.33333" stroke="#000000" fill="none" fill-rule="evenodd" /><g clip-path="url(#clip003)"><text><tspan x="0" y="14.93733" font-family="Times New Roman" font-weight="normal" font-style="normal" font-size="16" fill="#000000">{"a":0,"k":[25,25,0],"ix":2},"a":{"a":0,"k":[25,25,0],"ix":1},"s":{"a":0,"k":[100,100,100],"ix":6}},"ao":0,"shapes":</tspan><tspan x="739.0547" y="14.93733" font-family="Calibri" font-weight="normal" font-style="normal" font-size="14.66667" fill="#000000"> </tspan></text></g></g><g transform="translate(8,62.14)"><path d="M0,0 L785.7014,0 L785.7014,17.71875 L0,17.71875 Z" fill="#ffffff" fill-rule="evenodd" /><path d="M0,0 L785.7014,0 L785.7014,17.71875 L0,17.71875 Z" stroke-width="0.1866667" stroke-linejoin="round" stroke-miterlimit="13.33333" stroke="#000000" fill="none" fill-rule="evenodd" /><g clip-path="url(#clip004)"><text><tspan x="0" y="14.93733" font-family="Times New Roman" font-weight="normal" font-style="normal" font-size="16" fill="#000000">[{"ty":"gr","it":[{"ind":0,"ty":"sh","ix":1,"ks":{"a":0,"k":{"i":[[0,0],[0,0],[0,0]],"o":[[0,0],[0,0],[0,0]],"v":[[-17,3.002],</tspan><tspan x="758.648" y="14.93733" font-family="Calibri" font-weight="normal" font-style="normal" font-size="14.66667" fill="#000000"> </tspan></text></g></g><g transform="translate(8,80.13999)"><path d="M0,0 L785.7014,0 L785.7014,17.71875 L0,17.71875 Z" fill="#ffffff" fill-rule="evenodd" /><path d="M0,0 L785.7014,0 L785.7014,17.71875 L0,17.71875 Z" stroke-width="0.1866667" stroke-linejoin="round" stroke-miterlimit="13.33333" stroke="#000000" fill="none" fill-rule="evenodd" /><g clip-path="url(#clip005)"><text><tspan x="0" y="14.93733" font-family="Times New Roman" font-weight="normal" font-style="normal" font-size="16" fill="#000000">[-3.079,15.348],[17.002,-14.998]],"c":false},"ix":2},"nm":"Path</tspan><tspan x="410.352" y="14.93733" font-family="Times New Roman" font-weight="normal" font-style="normal" font-size="16" fill="#000000"> </tspan><tspan x="414.352" y="14.93733" font-family="Times New Roman" font-weight="normal" font-style="normal" font-size="16" fill="#000000">1","mn":"ADBE</tspan><tspan x="520.9227" y="14.93733" font-family="Times New Roman" font-weight="normal" font-style="normal" font-size="16" fill="#000000"> </tspan><tspan x="524.9227" y="14.93733" font-family="Times New Roman" font-weight="normal" font-style="normal" font-size="16" fill="#000000">Vector</tspan><tspan x="568.4533" y="14.93733" font-family="Times New Roman" font-weight="normal" font-style="normal" font-size="16" fill="#000000"> </tspan><tspan x="572.4533" y="14.93733" font-family="Times New Roman" font-weight="normal" font-style="normal" font-size="16" fill="#000000">Shape</tspan><tspan x="611.5546" y="14.93733" font-family="Times New Roman" font-weight="normal" font-style="normal" font-size="16" fill="#000000"> </tspan><tspan x="615.5546" y="14.93733" font-family="Times New Roman" font-weight="normal" font-style="normal" font-size="16" fill="#000000">-</tspan><tspan x="620.8826" y="14.93733" font-family="Times New Roman" font-weight="normal" font-style="normal" font-size="16" fill="#000000"> </tspan><tspan x="624.8826" y="14.93733" font-family="Times New Roman" font-weight="normal" font-style="normal" font-size="16" fill="#000000">Group","hd":false},</tspan><tspan x="751.688" y="14.93733" font-family="Calibri" font-weight="normal" font-style="normal" font-size="14.66667" fill="#000000"> </tspan></text></g></g><g transform="translate(8,98.14001)"><path d="M0,0 L785.7014,0 L785.7014,17.71875 L0,17.71875 Z" fill="#ffffff" fill-rule="evenodd" /><path d="M0,0 L785.7014,0 L785.7014,17.71875 L0,17.71875 Z" stroke-width="0.1866667" stroke-linejoin="round" stroke-miterlimit="13.33333" stroke="#000000" fill="none" fill-rule="evenodd" /><g clip-path="url(#clip006)"><text><tspan x="0" y="14.93733" font-family="Times New Roman" font-weight="normal" font-style="normal" font-size="16" fill="#000000">{"ty":"st","c":{"a":0,"k":[0,0,0,1],"ix":3},"o":{"a":0,"k":100,"ix":4},"w":</tspan><tspan x="470.0627" y="14.93733" font-family="Calibri" font-weight="normal" font-style="normal" font-size="14.66667" fill="#000000"> </tspan></text></g></g><g transform="translate(8,116.14)"><path d="M0,0 L785.7014,0 L785.7014,17.71875 L0,17.71875 Z" fill="#ffffff" fill-rule="evenodd" /><path d="M0,0 L785.7014,0 L785.7014,17.71875 L0,17.71875 Z" stroke-width="0.1866667" stroke-linejoin="round" stroke-miterlimit="13.33333" stroke="#000000" fill="none" fill-rule="evenodd" /><g clip-path="url(#clip007)"><text><tspan x="0" y="14.93733" font-family="Times New Roman" font-weight="normal" font-style="normal" font-size="16" fill="#000000">{"a":0,"k":4,"ix":5},"lc":2,"lj":2,"bm":0,"nm":"Stroke</tspan><tspan x="347.0934" y="14.93733" font-family="Times New Roman" font-weight="normal" font-style="normal" font-size="16" fill="#000000"> </tspan><tspan x="351.0934" y="14.93733" font-family="Times New Roman" font-weight="normal" font-style="normal" font-size="16" fill="#000000">1","mn":"ADBE</tspan><tspan x="457.664" y="14.93733" font-family="Times New Roman" font-weight="normal" font-style="normal" font-size="16" fill="#000000"> </tspan><tspan x="461.664" y="14.93733" font-family="Times New Roman" font-weight="normal" font-style="normal" font-size="16" fill="#000000">Vector</tspan><tspan x="505.1947" y="14.93733" font-family="Times New Roman" font-weight="normal" font-style="normal" font-size="16" fill="#000000"> </tspan><tspan x="509.1947" y="14.93733" font-family="Times New Roman" font-weight="normal" font-style="normal" font-size="16" fill="#000000">Graphic</tspan><tspan x="560.7253" y="14.93733" font-family="Times New Roman" font-weight="normal" font-style="normal" font-size="16" fill="#000000"> </tspan><tspan x="564.7253" y="14.93733" font-family="Times New Roman" font-weight="normal" font-style="normal" font-size="16" fill="#000000">-</tspan><tspan x="570.0533" y="14.93733" font-family="Times New Roman" font-weight="normal" font-style="normal" font-size="16" fill="#000000"> </tspan><tspan x="574.0533" y="14.93733" font-family="Times New Roman" font-weight="normal" font-style="normal" font-size="16" fill="#000000">Stroke","hd":false},</tspan><tspan x="701.748" y="14.93733" font-family="Calibri" font-weight="normal" font-style="normal" font-size="14.66667" fill="#000000"> </tspan></text></g></g><g transform="translate(8,134.14)"><path d="M0,0 L785.7014,0 L785.7014,17.71875 L0,17.71875 Z" fill="#ffffff" fill-rule="evenodd" /><path d="M0,0 L785.7014,0 L785.7014,17.71875 L0,17.71875 Z" stroke-width="0.1866667" stroke-linejoin="round" stroke-miterlimit="13.33333" stroke="#000000" fill="none" fill-rule="evenodd" /><g clip-path="url(#clip008)"><text><tspan x="0" y="14.93733" font-family="Times New Roman" font-weight="normal" font-style="normal" font-size="16" fill="#000000">{"ty":"tr","p":{"a":0,"k":[25,26],"ix":2},"a":{"a":0,"k":[0,0],"ix":1},"s":{"a":0,"k":[100,100],"ix":3},"r":</tspan><tspan x="671.4147" y="14.93733" font-family="Calibri" font-weight="normal" font-style="normal" font-size="14.66667" fill="#000000"> </tspan></text></g></g><g transform="translate(8,152.14)"><path d="M0,0 L785.7014,0 L785.7014,17.71875 L0,17.71875 Z" fill="#ffffff" fill-rule="evenodd" /><path d="M0,0 L785.7014,0 L785.7014,17.71875 L0,17.71875 Z" stroke-width="0.1866667" stroke-linejoin="round" stroke-miterlimit="13.33333" stroke="#000000" fill="none" fill-rule="evenodd" /><g clip-path="url(#clip009)"><text><tspan x="0" y="14.93733" font-family="Times New Roman" font-weight="normal" font-style="normal" font-size="16" fill="#000000">{"a":0,"k":0,"ix":6},"o":{"a":0,"k":100,"ix":7},"sk":{"a":0,"k":0,"ix":4},"sa":</tspan><tspan x="498.3667" y="14.93733" font-family="Calibri" font-weight="normal" font-style="normal" font-size="14.66667" fill="#000000"> </tspan></text></g></g><g transform="translate(8,170.14)"><path d="M0,0 L785.7014,0 L785.7014,17.71875 L0,17.71875 Z" fill="#ffffff" fill-rule="evenodd" /><path d="M0,0 L785.7014,0 L785.7014,17.71875 L0,17.71875 Z" stroke-width="0.1866667" stroke-linejoin="round" stroke-miterlimit="13.33333" stroke="#000000" fill="none" fill-rule="evenodd" /><g clip-path="url(#clip010)"><text><tspan x="0" y="14.93733" font-family="Times New Roman" font-weight="normal" font-style="normal" font-size="16" fill="#000000">{"a":0,"k":0,"ix":5},"nm":"Transform"}],"nm":"Group</tspan><tspan x="352.352" y="14.93733" font-family="Times New Roman" font-weight="normal" font-style="normal" font-size="16" fill="#000000"> </tspan><tspan x="356.352" y="14.93733" font-family="Times New Roman" font-weight="normal" font-style="normal" font-size="16" fill="#000000">1","np":2,"cix":2,"bm":0,"ix":1,"mn":"ADBE</tspan><tspan x="649.3907" y="14.93733" font-family="Times New Roman" font-weight="normal" font-style="normal" font-size="16" fill="#000000"> </tspan><tspan x="653.3907" y="14.93733" font-family="Times New Roman" font-weight="normal" font-style="normal" font-size="16" fill="#000000">Vector</tspan><tspan x="696.9213" y="14.93733" font-family="Calibri" font-weight="normal" font-style="normal" font-size="14.66667" fill="#000000"> </tspan></text></g></g><g transform="translate(8,188.14)"><path d="M0,0 L785.7014,0 L785.7014,17.71875 L0,17.71875 Z" fill="#ffffff" fill-rule="evenodd" /><path d="M0,0 L785.7014,0 L785.7014,17.71875 L0,17.71875 Z" stroke-width="0.1866667" stroke-linejoin="round" stroke-miterlimit="13.33333" stroke="#000000" fill="none" fill-rule="evenodd" /><g clip-path="url(#clip011)"><text><tspan x="0" y="14.93733" font-family="Times New Roman" font-weight="normal" font-style="normal" font-size="16" fill="#000000">Group","hd":false},{"ty":"tm","s":{"a":1,"k":[{"i":{"x":[0.258],"y":[1]},"o":{"x":[0.167],"y":[0]},"t":17,"s":[0]},</tspan><tspan x="727.7893" y="14.93733" font-family="Calibri" font-weight="normal" font-style="normal" font-size="14.66667" fill="#000000"> </tspan></text></g></g><g transform="translate(8,206.14)"><path d="M0,0 L785.7014,0 L785.7014,17.71875 L0,17.71875 Z" fill="#ffffff" fill-rule="evenodd" /><path d="M0,0 L785.7014,0 L785.7014,17.71875 L0,17.71875 Z" stroke-width="0.1866667" stroke-linejoin="round" stroke-miterlimit="13.33333" stroke="#000000" fill="none" fill-rule="evenodd" /><g clip-path="url(#clip012)"><text><tspan x="0" y="14.93733" font-family="Times New Roman" font-weight="normal" font-style="normal" font-size="16" fill="#000000">{"t":25,"s":[0]}],"ix":1},"e":{"a":1,"k":[{"i":{"x":[0.258],"y":[1]},"o":{"x":[0.167],"y":[0.167]},"t":17,"s":[0]},</tspan><tspan x="716.9373" y="14.93733" font-family="Calibri" font-weight="normal" font-style="normal" font-size="14.66667" fill="#000000"> </tspan></text></g></g><g transform="translate(8,224.14)"><path d="M0,0 L785.7014,0 L785.7014,17.71875 L0,17.71875 Z" fill="#ffffff" fill-rule="evenodd" /><path d="M0,0 L785.7014,0 L785.7014,17.71875 L0,17.71875 Z" stroke-width="0.1866667" stroke-linejoin="round" stroke-miterlimit="13.33333" stroke="#000000" fill="none" fill-rule="evenodd" /><g clip-path="url(#clip013)"><text><tspan x="0" y="14.93733" font-family="Times New Roman" font-weight="normal" font-style="normal" font-size="16" fill="#000000">{"t":25,"s":[100]}],"ix":2},"o":{"a":0,"k":0,"ix":3},"m":1,"ix":2,"nm":"Trim</tspan><tspan x="491.984" y="14.93733" font-family="Times New Roman" font-weight="normal" font-style="normal" font-size="16" fill="#000000"> </tspan><tspan x="495.984" y="14.93733" font-family="Times New Roman" font-weight="normal" font-style="normal" font-size="16" fill="#000000">Paths</tspan><tspan x="530.656" y="14.93733" font-family="Times New Roman" font-weight="normal" font-style="normal" font-size="16" fill="#000000"> </tspan><tspan x="534.656" y="14.93733" font-family="Times New Roman" font-weight="normal" font-style="normal" font-size="16" fill="#000000">1","mn":"ADBE</tspan><tspan x="641.2267" y="14.93733" font-family="Times New Roman" font-weight="normal" font-style="normal" font-size="16" fill="#000000"> </tspan><tspan x="645.2267" y="14.93733" font-family="Times New Roman" font-weight="normal" font-style="normal" font-size="16" fill="#000000">Vector</tspan><tspan x="688.7573" y="14.93733" font-family="Times New Roman" font-weight="normal" font-style="normal" font-size="16" fill="#000000"> </tspan><tspan x="692.7573" y="14.93733" font-family="Times New Roman" font-weight="normal" font-style="normal" font-size="16" fill="#000000">Filter</tspan><tspan x="727.4213" y="14.93733" font-family="Times New Roman" font-weight="normal" font-style="normal" font-size="16" fill="#000000"> </tspan><tspan x="731.4213" y="14.93733" font-family="Times New Roman" font-weight="normal" font-style="normal" font-size="16" fill="#000000">-</tspan><tspan x="736.7493" y="14.93733" font-family="Calibri" font-weight="normal" font-style="normal" font-size="14.66667" fill="#000000"> </tspan></text></g></g><g transform="translate(8,242.14)"><path d="M0,0 L785.7014,0 L785.7014,17.71875 L0,17.71875 Z" fill="#ffffff" fill-rule="evenodd" /><path d="M0,0 L785.7014,0 L785.7014,17.71875 L0,17.71875 Z" stroke-width="0.1866667" stroke-linejoin="round" stroke-miterlimit="13.33333" stroke="#000000" fill="none" fill-rule="evenodd" /><g clip-path="url(#clip014)"><text><tspan x="0" y="14.93733" font-family="Times New Roman" font-weight="normal" font-style="normal" font-size="16" fill="#000000">Trim","hd":false}],"ip":14,"op":28,"st":14,"bm":0},{"ddd":0,"ind":2,"ty":4,"nm":"Checkmark","sr":1,"ks":{"o":</tspan><tspan x="720.36" y="14.93733" font-family="Calibri" font-weight="normal" font-style="normal" font-size="14.66667" fill="#000000"> </tspan></text></g></g><g transform="translate(8,260.14)"><path d="M0,0 L785.7014,0 L785.7014,17.71875 L0,17.71875 Z" fill="#ffffff" fill-rule="evenodd" /><path d="M0,0 L785.7014,0 L785.7014,17.71875 L0,17.71875 Z" stroke-width="0.1866667" stroke-linejoin="round" stroke-miterlimit="13.33333" stroke="#000000" fill="none" fill-rule="evenodd" /><g clip-path="url(#clip015)"><text><tspan x="0" y="14.93733" font-family="Times New Roman" font-weight="normal" font-style="normal" font-size="16" fill="#000000">{"a":0,"k":100,"ix":11},"r":{"a":0,"k":0,"ix":10},"p":{"a":0,"k":[25,25,0],"ix":2},"a":{"a":0,"k":[25,25,0],"ix":1},"s":</tspan><tspan x="755.7187" y="14.93733" font-family="Calibri" font-weight="normal" font-style="normal" font-size="14.66667" fill="#000000"> </tspan></text></g></g><g transform="translate(8,278.14)"><path d="M0,0 L785.7014,0 L785.7014,17.71875 L0,17.71875 Z" fill="#ffffff" fill-rule="evenodd" /><path d="M0,0 L785.7014,0 L785.7014,17.71875 L0,17.71875 Z" stroke-width="0.1866667" stroke-linejoin="round" stroke-miterlimit="13.33333" stroke="#000000" fill="none" fill-rule="evenodd" /><g clip-path="url(#clip016)"><text><tspan x="0" y="14.93733" font-family="Times New Roman" font-weight="normal" font-style="normal" font-size="16" fill="#000000">{"a":0,"k":[100,100,100],"ix":6}},"ao":0,"shapes":[{"ty":"gr","it":[{"ind":0,"ty":"sh","ix":1,"ks":{"a":0,"k":{"i":[[0,0],</tspan><tspan x="763.5933" y="14.93733" font-family="Calibri" font-weight="normal" font-style="normal" font-size="14.66667" fill="#000000"> </tspan></text></g></g><g transform="translate(8,296.14)"><path d="M0,0 L785.7014,0 L785.7014,17.71875 L0,17.71875 Z" fill="#ffffff" fill-rule="evenodd" /><path d="M0,0 L785.7014,0 L785.7014,17.71875 L0,17.71875 Z" stroke-width="0.1866667" stroke-linejoin="round" stroke-miterlimit="13.33333" stroke="#000000" fill="none" fill-rule="evenodd" /><g clip-path="url(#clip017)"><text><tspan x="0" y="14.93733" font-family="Times New Roman" font-weight="normal" font-style="normal" font-size="16" fill="#000000">[0,0],[0,0]],"o":[[0,0],[0,0],[0,0]],"v":[[-17,3.002],[-3.079,15.348],[17.002,-14.998]],"c":false},"ix":2},"nm":"Path</tspan><tspan x="731.9453" y="14.93733" font-family="Calibri" font-weight="normal" font-style="normal" font-size="14.66667" fill="#000000"> </tspan></text></g></g><g transform="translate(8,314.14)"><path d="M0,0 L785.7014,0 L785.7014,17.71875 L0,17.71875 Z" fill="#ffffff" fill-rule="evenodd" /><path d="M0,0 L785.7014,0 L785.7014,17.71875 L0,17.71875 Z" stroke-width="0.1866667" stroke-linejoin="round" stroke-miterlimit="13.33333" stroke="#000000" fill="none" fill-rule="evenodd" /><g clip-path="url(#clip018)"><text><tspan x="0" y="14.93733" font-family="Times New Roman" font-weight="normal" font-style="normal" font-size="16" fill="#000000">1","mn":"ADBE</tspan><tspan x="106.5707" y="14.93733" font-family="Times New Roman" font-weight="normal" font-style="normal" font-size="16" fill="#000000"> </tspan><tspan x="110.5707" y="14.93733" font-family="Times New Roman" font-weight="normal" font-style="normal" font-size="16" fill="#000000">Vector</tspan><tspan x="154.1013" y="14.93733" font-family="Times New Roman" font-weight="normal" font-style="normal" font-size="16" fill="#000000"> </tspan><tspan x="158.1013" y="14.93733" font-family="Times New Roman" font-weight="normal" font-style="normal" font-size="16" fill="#000000">Shape</tspan><tspan x="197.2027" y="14.93733" font-family="Times New Roman" font-weight="normal" font-style="normal" font-size="16" fill="#000000"> </tspan><tspan x="201.2027" y="14.93733" font-family="Times New Roman" font-weight="normal" font-style="normal" font-size="16" fill="#000000">-</tspan><tspan x="206.5307" y="14.93733" font-family="Times New Roman" font-weight="normal" font-style="normal" font-size="16" fill="#000000"> </tspan><tspan x="210.5307" y="14.93733" font-family="Times New Roman" font-weight="normal" font-style="normal" font-size="16" fill="#000000">Group","hd":false},{"ty":"st","c":{"a":0,"k":[0,0,0,1],"ix":3},"o":</tspan><tspan x="630.9053" y="14.93733" font-family="Calibri" font-weight="normal" font-style="normal" font-size="14.66667" fill="#000000"> </tspan></text></g></g><g transform="translate(8,332.14)"><path d="M0,0 L785.7014,0 L785.7014,17.71875 L0,17.71875 Z" fill="#ffffff" fill-rule="evenodd" /><path d="M0,0 L785.7014,0 L785.7014,17.71875 L0,17.71875 Z" stroke-width="0.1866667" stroke-linejoin="round" stroke-miterlimit="13.33333" stroke="#000000" fill="none" fill-rule="evenodd" /><g clip-path="url(#clip019)"><text><tspan x="0" y="14.93733" font-family="Times New Roman" font-weight="normal" font-style="normal" font-size="16" fill="#000000">{"a":0,"k":100,"ix":4},"w":{"a":0,"k":4,"ix":5},"lc":2,"lj":2,"bm":0,"nm":"Stroke</tspan><tspan x="523.5853" y="14.93733" font-family="Times New Roman" font-weight="normal" font-style="normal" font-size="16" fill="#000000"> </tspan><tspan x="527.5853" y="14.93733" font-family="Times New Roman" font-weight="normal" font-style="normal" font-size="16" fill="#000000">1","mn":"ADBE</tspan><tspan x="634.156" y="14.93733" font-family="Times New Roman" font-weight="normal" font-style="normal" font-size="16" fill="#000000"> </tspan><tspan x="638.156" y="14.93733" font-family="Times New Roman" font-weight="normal" font-style="normal" font-size="16" fill="#000000">Vector</tspan><tspan x="681.6867" y="14.93733" font-family="Times New Roman" font-weight="normal" font-style="normal" font-size="16" fill="#000000"> </tspan><tspan x="685.6867" y="14.93733" font-family="Times New Roman" font-weight="normal" font-style="normal" font-size="16" fill="#000000">Graphic</tspan><tspan x="737.2173" y="14.93733" font-family="Times New Roman" font-weight="normal" font-style="normal" font-size="16" fill="#000000"> </tspan><tspan x="741.2173" y="14.93733" font-family="Times New Roman" font-weight="normal" font-style="normal" font-size="16" fill="#000000">-</tspan><tspan x="746.5453" y="14.93733" font-family="Calibri" font-weight="normal" font-style="normal" font-size="14.66667" fill="#000000"> </tspan></text></g></g><g transform="translate(8,350.14)"><path d="M0,0 L785.7014,0 L785.7014,17.71875 L0,17.71875 Z" fill="#ffffff" fill-rule="evenodd" /><path d="M0,0 L785.7014,0 L785.7014,17.71875 L0,17.71875 Z" stroke-width="0.1866667" stroke-linejoin="round" stroke-miterlimit="13.33333" stroke="#000000" fill="none" fill-rule="evenodd" /><g clip-path="url(#clip020)"><text><tspan x="0" y="14.93733" font-family="Times New Roman" font-weight="normal" font-style="normal" font-size="16" fill="#000000">Stroke","hd":false},{"ty":"tr","p":{"a":0,"k":[25,26],"ix":2},"a":{"a":0,"k":[0,0],"ix":1},"s":{"a":0,"k":</tspan><tspan x="659.984" y="14.93733" font-family="Calibri" font-weight="normal" font-style="normal" font-size="14.66667" fill="#000000"> </tspan></text></g></g><g transform="translate(8,368.14)"><path d="M0,0 L785.7014,0 L785.7014,17.71875 L0,17.71875 Z" fill="#ffffff" fill-rule="evenodd" /><path d="M0,0 L785.7014,0 L785.7014,17.71875 L0,17.71875 Z" stroke-width="0.1866667" stroke-linejoin="round" stroke-miterlimit="13.33333" stroke="#000000" fill="none" fill-rule="evenodd" /><g clip-path="url(#clip021)"><text><tspan x="0" y="14.93733" font-family="Times New Roman" font-weight="normal" font-style="normal" font-size="16" fill="#000000">[100,100],"ix":3},"r":{"a":0,"k":0,"ix":6},"o":{"a":0,"k":100,"ix":7},"sk":{"a":0,"k":0,"ix":4},"sa":</tspan><tspan x="637.492" y="14.93733" font-family="Calibri" font-weight="normal" font-style="normal" font-size="14.66667" fill="#000000"> </tspan></text></g></g><g transform="translate(8,386.14)"><path d="M0,0 L785.7014,0 L785.7014,17.71875 L0,17.71875 Z" fill="#ffffff" fill-rule="evenodd" /><path d="M0,0 L785.7014,0 L785.7014,17.71875 L0,17.71875 Z" stroke-width="0.1866667" stroke-linejoin="round" stroke-miterlimit="13.33333" stroke="#000000" fill="none" fill-rule="evenodd" /><g clip-path="url(#clip022)"><text><tspan x="0" y="14.93733" font-family="Times New Roman" font-weight="normal" font-style="normal" font-size="16" fill="#000000">{"a":0,"k":0,"ix":5},"nm":"Transform"}],"nm":"Group</tspan><tspan x="352.352" y="14.93733" font-family="Times New Roman" font-weight="normal" font-style="normal" font-size="16" fill="#000000"> </tspan><tspan x="356.352" y="14.93733" font-family="Times New Roman" font-weight="normal" font-style="normal" font-size="16" fill="#000000">1","np":2,"cix":2,"bm":0,"ix":1,"mn":"ADBE</tspan><tspan x="649.3907" y="14.93733" font-family="Times New Roman" font-weight="normal" font-style="normal" font-size="16" fill="#000000"> </tspan><tspan x="653.3907" y="14.93733" font-family="Times New Roman" font-weight="normal" font-style="normal" font-size="16" fill="#000000">Vector</tspan><tspan x="696.9213" y="14.93733" font-family="Calibri" font-weight="normal" font-style="normal" font-size="14.66667" fill="#000000"> </tspan></text></g></g><g transform="translate(8,404.14)"><path d="M0,0 L785.7014,0 L785.7014,17.71875 L0,17.71875 Z" fill="#ffffff" fill-rule="evenodd" /><path d="M0,0 L785.7014,0 L785.7014,17.71875 L0,17.71875 Z" stroke-width="0.1866667" stroke-linejoin="round" stroke-miterlimit="13.33333" stroke="#000000" fill="none" fill-rule="evenodd" /><g clip-path="url(#clip023)"><text><tspan x="0" y="14.93733" font-family="Times New Roman" font-weight="normal" font-style="normal" font-size="16" fill="#000000">Group","hd":false},{"ty":"tm","s":{"a":1,"k":[{"i":{"x":[0.258],"y":[1]},"o":{"x":[0.167],"y":[0.167]},"t":3,"s":[0]},</tspan><tspan x="747.7893" y="14.93733" font-family="Calibri" font-weight="normal" font-style="normal" font-size="14.66667" fill="#000000"> </tspan></text></g></g><g transform="translate(8,422.14)"><path d="M0,0 L785.7014,0 L785.7014,17.71875 L0,17.71875 Z" fill="#ffffff" fill-rule="evenodd" /><path d="M0,0 L785.7014,0 L785.7014,17.71875 L0,17.71875 Z" stroke-width="0.1866667" stroke-linejoin="round" stroke-miterlimit="13.33333" stroke="#000000" fill="none" fill-rule="evenodd" /><g clip-path="url(#clip024)"><text><tspan x="0" y="14.93733" font-family="Times New Roman" font-weight="normal" font-style="normal" font-size="16" fill="#000000">{"t":11,"s":[100]}],"ix":1},"e":{"a":1,"k":[{"i":{"x":[0.258],"y":[1]},"o":{"x":[0.167],"y":[0]},"t":3,"s":[100]},</tspan><tspan x="712.9373" y="14.93733" font-family="Calibri" font-weight="normal" font-style="normal" font-size="14.66667" fill="#000000"> </tspan></text></g></g><g transform="translate(8,440.14)"><path d="M0,0 L785.7014,0 L785.7014,17.71875 L0,17.71875 Z" fill="#ffffff" fill-rule="evenodd" /><path d="M0,0 L785.7014,0 L785.7014,17.71875 L0,17.71875 Z" stroke-width="0.1866667" stroke-linejoin="round" stroke-miterlimit="13.33333" stroke="#000000" fill="none" fill-rule="evenodd" /><g clip-path="url(#clip025)"><text><tspan x="0" y="14.93733" font-family="Times New Roman" font-weight="normal" font-style="normal" font-size="16" fill="#000000">{"t":11,"s":[100]}],"ix":2},"o":{"a":0,"k":0,"ix":3},"m":1,"ix":2,"nm":"Trim</tspan><tspan x="491.984" y="14.93733" font-family="Times New Roman" font-weight="normal" font-style="normal" font-size="16" fill="#000000"> </tspan><tspan x="495.984" y="14.93733" font-family="Times New Roman" font-weight="normal" font-style="normal" font-size="16" fill="#000000">Paths</tspan><tspan x="530.656" y="14.93733" font-family="Times New Roman" font-weight="normal" font-style="normal" font-size="16" fill="#000000"> </tspan><tspan x="534.656" y="14.93733" font-family="Times New Roman" font-weight="normal" font-style="normal" font-size="16" fill="#000000">1","mn":"ADBE</tspan><tspan x="641.2267" y="14.93733" font-family="Times New Roman" font-weight="normal" font-style="normal" font-size="16" fill="#000000"> </tspan><tspan x="645.2267" y="14.93733" font-family="Times New Roman" font-weight="normal" font-style="normal" font-size="16" fill="#000000">Vector</tspan><tspan x="688.7573" y="14.93733" font-family="Times New Roman" font-weight="normal" font-style="normal" font-size="16" fill="#000000"> </tspan><tspan x="692.7573" y="14.93733" font-family="Times New Roman" font-weight="normal" font-style="normal" font-size="16" fill="#000000">Filter</tspan><tspan x="727.4213" y="14.93733" font-family="Times New Roman" font-weight="normal" font-style="normal" font-size="16" fill="#000000"> </tspan><tspan x="731.4213" y="14.93733" font-family="Times New Roman" font-weight="normal" font-style="normal" font-size="16" fill="#000000">-</tspan><tspan x="736.7493" y="14.93733" font-family="Calibri" font-weight="normal" font-style="normal" font-size="14.66667" fill="#000000"> </tspan></text></g></g><g transform="translate(8,458.14)"><path d="M0,0 L785.7014,0 L785.7014,17.71875 L0,17.71875 Z" fill="#ffffff" fill-rule="evenodd" /><path d="M0,0 L785.7014,0 L785.7014,17.71875 L0,17.71875 Z" stroke-width="0.1866667" stroke-linejoin="round" stroke-miterlimit="13.33333" stroke="#000000" fill="none" fill-rule="evenodd" /><g clip-path="url(#clip026)"><text><tspan x="0" y="14.93733" font-family="Times New Roman" font-weight="normal" font-style="normal" font-size="16" fill="#000000">Trim","hd":false}],"ip":0,"op":14,"st":0,"bm":0}],"markers":[]}</tspan><tspan x="409.2187" y="14.93733" font-family="Calibri" font-weight="normal" font-style="normal" font-size="14.66667" fill="#000000"> </tspan></text></g></g></g></svg>